<svg width="16" height="14" viewBox="0 0 16 14" fill="none" stroke="#818183" xmlns="http://www.w3.org/2000/svg">
<path d="M6.32045 8.77507C5.8892 8.34457 5.6267 7.75957 5.6267 7.10332C5.6267 5.78857 6.6857 4.72882 7.9997 4.72882C8.64995 4.72882 9.24845 4.99207 9.6722 5.42257"  stroke-width="1.5" stroke-linecap="round" stroke-linejoin="round"/>
<path d="M10.3286 7.52417C10.1546 8.49167 9.3926 9.25517 8.42585 9.43067"  stroke-width="1.5" stroke-linecap="round" stroke-linejoin="round"/>
<path d="M3.99095 11.1042C2.8007 10.1697 1.7927 8.80473 1.0622 7.10298C1.8002 5.39373 2.81495 4.02123 4.0127 3.07923C5.20295 2.13723 6.5762 1.62573 7.9997 1.62573C9.43145 1.62573 10.804 2.14473 12.0017 3.09348"  stroke-width="1.5" stroke-linecap="round" stroke-linejoin="round"/>
<path d="M13.5857 4.7431C14.1017 5.4286 14.5555 6.21985 14.9372 7.1026C13.462 10.5204 10.855 12.5791 7.9997 12.5791C7.35245 12.5791 6.7142 12.4741 6.1007 12.2694"  stroke-width="1.5" stroke-linecap="round" stroke-linejoin="round"/>
<path d="M13.9153 1.18719L2.08475 13.0177"  stroke-width="1.5" stroke-linecap="round" stroke-linejoin="round"/>
</svg>
